<?xml version="1.0" encoding="utf-8"?>
<!-- Generator: Adobe Illustrator 23.0.1, SVG Export Plug-In . SVG Version: 6.00 Build 0)  -->
<svg version="1.1" id="Layer_1" xmlns="http://www.w3.org/2000/svg" xmlns:xlink="http://www.w3.org/1999/xlink" x="0px" y="0px"
	 viewBox="0 0 633.71 312.92" style="enable-background:new 0 0 633.71 312.92;" xml:space="preserve">
<style type="text/css">
	.st0{fill:#010101;}
</style>
<g>
	<g>
		<path d="M436.25,77.9c-0.45-0.48-0.86-0.92-1.55-1.65c0.97,0.28,1.63,0.34,2.15,0.66c2.73,1.64,5.81,2.66,7.45,5.92
			c1.5,2.97,2.31,6.05,2.33,9.23c0.04,4.46-0.19,8.96-0.75,13.38c-0.32,2.53-1.2,5.05-4.26,6.06c-2.31,0.77-4.23,0.13-4.99-2.28
			c-0.08-0.25-0.2-0.52-0.39-0.68c-3.08-2.7-2.68-6.23-2.54-9.8c0.16-4.12,0-8.24-0.03-12.37c0-0.18-0.17-0.36-0.45-0.95
			c-0.77,1.62-1.51,2.89-2,4.26c-1.72,4.79-3.67,9.54-4.92,14.45c-1.24,4.85-2.12,9.87-2.47,14.86c-0.34,4.8,0.01,9.67,0.4,14.48
			c0.19,2.28,0.9,4.62,3.01,6.13c0.37,0.27,0.59,0.74,0.91,1.17c3.04-0.33,4.7-2.68,6.33-4.79c1.35-1.74,2.18-3.88,3.21-5.86
			c1.4-2.69,2.79-5.38,4.15-8.1c1.44-2.87,2.83-5.76,4.26-8.64c0.73-1.46,1.58-2.87,2.2-4.38c0.75-1.82,1.17-3.77,1.96-5.57
			c1.78-4.05,3.7-8.04,5.58-12.05c0.15-0.32,0.48-0.56,0.74-0.83c1.74-1.84,4.34-2.43,6.04-4.54c0.81-1,3.3-1.01,4.98-0.87
			c2.08,0.18,4.11,0.97,6.21,1.51c1-2,0.97-1.95,3.48-0.79c0.63,0.29,1.51,0.33,2.19,0.15c2.78-0.75,4.15,1.3,5.97,2.69
			c2.54,1.95,1.9,4.5,1.81,7.02c-0.11,3.32-0.11,6.65-0.21,9.98c-0.02,0.68-0.37,1.34-0.42,2.02c-0.14,1.81-0.2,3.63-0.29,5.45
			c-0.19,3.56-0.51,7.13-0.53,10.69c-0.01,2.04,0.45,4.08,0.78,6.74c0.65-0.98,1.15-1.53,1.41-2.17c0.67-1.7,1.32-3.41,1.82-5.16
			c0.72-2.51,1.29-5.06,1.96-7.58c0.89-3.33,1.95-6.63,2.69-9.99c0.73-3.31,1.11-6.69,1.73-10.02c0.14-0.74,0.77-1.41,0.87-2.15
			c0.61-4.72,1.05-9.45,1.71-14.16c0.29-2.05,0.94-4.04,1.47-6.05c0.32-1.23,0.01-1.65-1.37-1.78c-2.97-0.28-5.91-0.9-8.88-1.26
			c-1.36-0.16-2.76,0.06-4.14-0.01c-5.09-0.24-10.17-0.16-15.22-1.35c-3.24-0.76-5.45-2.33-6.42-5.28
			c-0.63-1.92-0.48-4.09-0.65-5.86c1.36-0.44,2.33-0.76,3.48-1.14c0.87,1.41,2.35,1.01,3.94,0.94c2.38-0.09,4.78,0.41,7.18,0.41
			c3.22,0,6.43-0.33,9.65-0.37c3.45-0.04,6.9,0.03,10.35,0.16c2.57,0.1,3.66-0.38,4.32-2.76c0.45-1.61,1.22-3.37-0.35-4.95
			c-0.22-0.23-0.12-0.94,0.04-1.35c1.04-2.76,2.33-5.33,1.74-8.57c-0.34-1.88,0.5-4.02,0.99-5.99c0.29-1.16,3.93-2.1,5.69-1.89
			c2.59,0.31,3.89,2.07,5.47,3.88c4.19,4.82,3.29,10.38,2.89,15.93c-0.06,0.85-0.25,1.7-0.25,2.55c0,2.15,0.81,2.89,3.06,2.74
			c1.01-0.06,2.1-0.12,2.98-0.55c0.65-0.31,1.27-1.16,1.44-1.88c0.42-1.77,0.41-3.66,0.88-5.41c0.61-2.22,1.4-4.42,2.37-6.51
			c0.4-0.87,1.42-1.49,2.23-2.13c0.78-0.6,1.63-1.14,2.5-1.59c2-1.04,4-0.59,5.85,0.35c6.13,3.1,9.15,8.34,10.08,14.95
			c0.4,2.85,1.58,3.84,4.41,3.57c2.96-0.28,5.7,0.27,8.26,1.87c1.25,0.78,2.63,1.39,4,1.94c2.98,1.19,4.49,3.68,5.68,6.4
			c0.55,1.27,1.87,2.51,0.86,3.79c-1.74-0.2-3.31-0.5-4.88-0.52c-1.22-0.02-2.4,0.01-3.42,1.27c-0.53,0.66-2.17,0.46-3.32,0.59
			c-0.96,0.11-1.93,0.17-2.9,0.19c-2.59,0.06-5.2,0.27-7.77,0.06c-2.09-0.17-2.48,1.09-2.8,2.54c-0.58,2.57-1.64,4.91-4.12,6.01
			c-1.38,0.61-3.08,0.51-4.64,0.66c-1.49,0.15-2.99,0.13-4.47,0.33c-1.99,0.27-3.52-0.52-5.19-1.51c-2.55-1.51-2.83-4.04-3.56-6.4
			c-0.47-1.52-1-2.55-2.95-2.34c-1.51,0.17-3.08-0.33-4.61-0.27c-0.59,0.02-1.63,0.72-1.65,1.16c-0.21,3.59-0.22,7.19-0.3,10.79
			c-0.01,0.25-0.11,0.5-0.13,0.76c-0.15,1.67-0.31,3.33-0.42,5c-0.09,1.4,1.11,3-0.72,4.11c0.29,0.61,0.56,1.17,0.9,1.89
			c-0.41-0.08-0.7-0.13-1.11-0.2c1.09,4.27,0.26,8.48-0.2,12.71c-0.36,3.3-0.34,6.65-0.63,9.96c-0.33,3.85-0.98,7.67-1.17,11.53
			c-0.21,4.26-0.07,8.53-0.05,12.8c0.01,1.55,0.53,3.23,0.08,4.61c-0.77,2.36-0.23,4.65-0.41,6.95c-0.04,0.49-1.03,1.06-1.69,1.31
			c-0.68,0.26-1.62-0.05-2.22,0.29c-2.37,1.38-4.55,0.72-6.48-0.67c-4.19-3.01-6.65-6.83-6.06-12.4c0.4-3.76-0.09-7.61,0.02-11.41
			c0.08-2.83,0.5-5.65,0.36-8.58c-0.32,1.4-0.65,2.79-0.97,4.19c-0.21,0.91-0.29,1.87-0.65,2.72c-1.22,2.87-2.51,5.7-3.82,8.53
			c-0.93,2.01-2.81,2.25-5.87,1.82c-3.52-0.49-6.51-2.05-8.96-4.27c-1.59-1.44-2.25-3.91-3.26-5.95c-0.44-0.88-0.7-1.85-1.05-2.82
			c-1.27,2.64-2.3,5.2-3.68,7.56c-2.74,4.69-6.7,6.96-11.64,4.41c-2.02-1.04-3.88-2.43-5.72-3.79c-0.49-0.36-0.66-1.19-0.89-1.83
			c-0.21-0.58-0.32-1.2-0.47-1.8c-0.21-0.09-0.42-0.18-0.63-0.28c-1.03,1.49-2.06,2.98-3.09,4.48c-1.72,2.52-3.17,5.29-5.22,7.51
			c-2.47,2.67-5.27,5.15-9.22,5.59c-0.59,0.06-1.13,0.46-1.7,0.69c-2.46,0.97-3.79,0.78-4.46-1.31c-0.5-1.57-1.61-1.74-2.65-2.04
			c-3.6-1.04-6.43-3.13-8.19-6.35c-1.2-2.2-1.95-4.68-2.67-7.11c-0.74-2.48-1.21-5.04-1.91-8.02c-0.64,1.15-1.08,2.01-1.59,2.84
			c-1.76,2.87-3.25,5.97-5.39,8.52c-2.43,2.89-5.54,4.31-9.75,3.36c-4.13-0.92-7.19-2.79-9.33-6.34c-0.89-1.48-1.77-2.96-2.83-4.75
			c-0.67,1.35-1.37,2.53-1.86,3.8c-2.62,6.77-9.21,7.84-14.36,5.06c-3.76-2.03-6.21-5.5-7.26-9.78c-0.12-0.47-0.27-0.94-0.4-1.41
			c-0.19-0.01-0.38-0.02-0.57-0.03c-0.96,3.47-1.91,6.95-2.89,10.42c-0.67,2.38-1.33,4.75-2.05,7.12c-0.39,1.27-1.2,2.02-2.66,1.75
			c-0.3-0.06-0.64,0.05-0.96,0.09c-3.55,0.42-6.48-0.53-8.36-3.8c-0.76-1.31-1.7-2.54-2.27-3.93c-0.33-0.79,0-1.82-0.1-2.73
			c-0.38-3.34-0.81-6.67-1.3-10.6c-1.35,2.44-2.37,4.52-3.59,6.46c-1.47,2.34-3.04,4.63-4.71,6.84c-1.06,1.41-4.71,1.83-6.61,0.88
			c-1.93-0.96-3.85-1.96-5.69-3.08c-2.83-1.72-3.88-4.6-4.42-7.62c-0.4-2.25-0.42-4.57-0.6-6.86c-0.03-0.4-0.05-0.81-0.07-1.22
			c-0.18-0.06-0.36-0.12-0.54-0.19c-0.54,1.02-1.3,1.97-1.57,3.06c-1.08,4.31-3.5,7.8-6.25,11.16c-1.01,1.24-1.73,2.72-2.6,4.07
			c-1.67,2.6-4.15,3.19-7.21,2.52c-3.9-0.86-5.08-4.37-7.39-6.77c-1.84-1.92-1.2-4.66-2.07-6.92c-0.32-0.82-0.84-1.57-1.39-2.58
			c-0.38,0.54-0.73,0.96-0.99,1.44c-2.11,3.92-4.14,7.89-6.33,11.77c-1.47,2.59-3.69,4.38-6.7,5c-3.66,0.75-9.64-2.7-10.73-6.29
			c-0.84-2.77-1.67-5.57-2.17-8.41c-0.39-2.23-0.22-4.56-0.41-6.83c-0.07-0.84-0.47-1.66-0.72-2.49c-0.23-0.02-0.46-0.05-0.69-0.07
			c-0.62,1.41-1.32,2.8-1.85,4.24c-2.29,6.14-4.51,12.3-6.81,18.44c-0.8,2.12-3.28,3.21-5.47,2.29c-1.65-0.69-3.12-1.78-4.7-2.65
			c-0.5-0.28-1.08-0.42-2.07-0.79c-0.51-1.72-1.25-3.93-1.79-6.19c-0.29-1.19-0.21-2.47-0.35-3.71c-0.19-1.67-0.56-3.33-0.61-5.01
			c-0.13-4.27-0.21-8.54-0.15-12.81c0.03-2.28,0.46-4.55,0.57-6.83c0.05-1.03-0.25-2.07-0.75-3.18c-0.98,3.29-2,6.57-2.93,9.88
			c-2.01,7.13-4,14.26-5.93,21.41c-0.81,3.01-1.45,6.07-2.15,9.11c-0.3,1.28-1.42,1.93-2.58,1.25c-2.62-1.52-5.18-3.17-6.91-5.75
			c-0.36-0.54-0.34-1.32-0.53-1.99c-0.49-1.75-0.97-3.5-1.52-5.23c-0.09-0.28-0.56-0.44-0.88-0.67c0.02,3.77-2.14,6.55-3.62,9.57
			c-0.46,0.95-1.17,1.79-1.83,2.62c-1.89,2.37-4.68,2.34-7.06,1.72c-2.51-0.65-5.32-1.56-6.29-4.64c-0.13-0.41-0.65-0.68-0.95-1.05
			c-0.35-0.44-0.66-0.92-1.08-1.5c-0.11,0.11-0.48,0.44-1.02,0.94c0-0.84,0.29-1.76-0.05-2.2c-1.69-2.22-1.38-4.96-2.1-7.42
			c-0.43-1.48-0.69-3.05-0.76-4.59c-0.1-2.52,0.08-5.05,0.03-7.57c-0.07-3.18-0.25-6.36-0.39-9.55c-0.19-0.05-0.38-0.1-0.57-0.14
			c-1.25,3.52-2.49,7.05-3.75,10.57c-1.26,3.53-2.61,7.03-3.77,10.59c-0.9,2.75-1.79,5.55-2.27,8.39c-0.54,3.22-2.15,3.6-5.04,2.71
			c-2.27-0.7-4.97-1.4-6.02-4.08c-0.69-1.76-1.55-3.56-1.73-5.39c-0.36-3.66-0.41-7.37-0.37-11.05c0.03-2.72,0.49-5.43,0.61-8.15
			c0.11-2.42,0.02-4.85-0.33-7.33c-1.33,2.15-3.16,3.94-3,6.67c0.04,0.74-0.4,1.51-0.62,2.26c-0.19,0.65-0.38,1.29-0.55,1.94
			c-0.36,1.44-0.79,2.86-1.04,4.32c-0.68,3.97-1.37,7.94-1.88,11.94c-0.66,5.09-1.1,10.21-1.75,15.3c-0.21,1.63-0.67,3.25-1.25,4.79
			c-0.57,1.52-3.22,1.91-5.21,1c-4.38-1.98-6.84-5.78-9.11-9.7c-0.52-0.9-0.36-2.2-0.51-3.31c-0.4-3.12,0.33-6.18,0.56-9.27
			c0.33-4.47,0.66-8.94,0.9-13.41c0.17-3.26,0.26-6.52,0.2-9.78c-0.01-0.72-0.77-1.42-1.17-2.1c-2.13,0.59-2.38,1.99-2.53,3.9
			c-0.36,4.82-0.91,9.64-1.73,14.4c-0.84,4.84-1.74,9.73-3.27,14.38c-1.46,4.47-3.69,8.77-9.14,9.67c-1.07,0.18-2.21-0.16-3.32-0.15
			c-4.2,0.05-8.13-1.08-11.68-3.18c-1.09-0.64-2.16-1.33-3.15-2.12c-1.28-1.02-2.41-2.23-3.24-3.74c-0.64-1.17-1.34-2.31-2.09-3.5
			c-0.45-0.73-0.93-1.48-1.41-2.26c-0.91,3.05-1.7,5.87-2.59,8.66c-1.94,6.08-3.65,12.26-6.01,18.18
			c-1.78,4.46-4.84,8.28-7.87,12.08c-2.16,2.71-4.64,4.82-7.91,5.49c-4.11,0.85-8.35,1.09-12.54,1.61
			c-5.13,0.64-9.67-1.34-14.26-3.13c-0.15-0.06-0.29-0.2-0.43-0.2c-2.95-0.07-4.75-2.57-7.33-3.48c-1.12-0.39-1.88-1.72-2.91-2.46
			c-4.68-3.38-8.97-7.08-12.25-11.95c-2.77-4.11-6.08-7.86-8.93-11.92c-0.77-1.1-0.74-2.76-1.07-4.17c-0.07-0.31,0-0.8-0.19-0.93
			c-1.88-1.24-1.61-2.94-1.57-4.9c0.04-1.82-1.23-3.63-1.49-5.5c-0.55-3.87-0.92-7.78-1.16-11.69c-0.3-4.81-0.43-9.63-0.58-14.45
			c-0.07-2.35-0.01-4.71,0-7.06c0-0.27,0.1-0.6-0.02-0.8c-1.68-2.77,0.41-5.23,0.56-7.84c0.08-1.45-0.47-2.94-0.65-4.42
			c-0.08-0.64-0.09-1.35,0.11-1.95c0.34-0.99,1.06-1.88,1.29-2.89c0.29-1.31,1.1-2.74-0.3-4.02C2.67,73.26,2.83,72.4,3.08,72
			c0.93-1.54,1.76-3.08,1.34-4.97c-0.04-0.2-0.07-0.43,0-0.62c1.05-2.91,2.13-5.8,3.17-8.71c0.12-0.33,0.25-0.88,0.08-1.07
			c-1.26-1.38-0.17-2.1,0.54-3.24c1.04-1.67,1.57-3.65,2.26-5.52c0.26-0.7,0.37-1.45,0.65-2.62c-1.07,0.93-1.85,1.62-2.63,2.3
			c-0.18-0.15-0.36-0.3-0.54-0.45c1.47-2.03,2.94-4.06,4.42-6.1c-0.95-0.07-1.57-0.12-2.18-0.16c0.29-0.61,0.42-1.48,0.9-1.81
			c3.66-2.47,4.68-6.57,6.62-10.13c-2.16-0.94-2.28-1.58-0.43-2.89c2.86-2.03,4.65-4.9,6.63-7.69c2.06-2.91,4.31-5.79,6.91-8.21
			c3.3-3.08,7.37-5.06,11.76-6.31c4.46-1.27,8.8-1.08,13.26,0.29c5.62,1.72,11.1,3.76,15.88,7.15c2.68,1.9,5.03,4.36,7.17,6.87
			c1.88,2.21,3.58,4.7,4.76,7.34c1.25,2.78,1.8,5.88,2.63,8.84c0.22,0.77,0.26,1.6,0.52,2.36c1.55,4.68,0.89,9.53,1.04,14.31
			c0.1,3.16-0.02,6.33-0.12,9.49c-0.02,0.64-0.41,1.26-0.54,1.91c-0.34,1.73-0.71,3.46-0.94,5.2c-0.67,5.05-2.13,9.83-4.54,14.32
			c-1.3,2.42-2.58,4.85-3.98,7.22c-1.06,1.8-2.63,2.21-4.3,0.93c-2.24-1.72-4.5-3.52-6.29-5.67c-1.06-1.27-1.2-3.29-1.83-4.94
			c-0.78-2.06-0.67-4.5-2.58-6.12c-0.24-0.2-0.3-0.89-0.15-1.23c1.38-3.24-0.14-6.47-0.02-9.7c0.08-2.28-0.29-4.59-0.5-6.88
			c-0.04-0.46-0.2-0.96-0.45-1.34c-0.86-1.35-0.94-2.48,0.04-3.95c0.6-0.9,0.8-2.58,0.37-3.55c-0.98-2.19-0.01-4.04,0.39-6.02
			c0.06-0.31,0.11-0.63,0.16-0.94c-2.52-0.9-2.78-1.53-1.13-3.65c1.55-1.99,1.2-4.27,1.3-6.48c0.15-3.46-0.1-6.85-1.69-10.06
			c-1.6-3.22-5.72-4.16-8.76-2.36c-3.91,2.31-5.34,6.25-7.22,9.87c-2.37,4.57-4.7,9.2-6.49,14.02c-2.64,7.09-4.95,14.31-5.67,21.94
			c-0.21,2.22-1.03,4.38-1.35,6.6c-0.83,5.74-1.79,11.48-2.22,17.26c-0.49,6.51-0.49,13.05-0.64,19.58
			c-0.04,1.86-0.07,3.77,0.26,5.59c0.89,4.98-0.08,10.09,1.14,15.01c1.7,6.87,3.77,13.66,5.28,20.57c0.94,4.3,2.9,8.06,4.98,11.8
			c2.03,3.66,5.76,4.5,9.51,5.04c0.53,0.08,1.17-0.75,1.79-1.12c0.56-0.33,1.2-0.55,1.74-0.91c3.39-2.25,6.21-4.92,8.77-8.24
			c3.64-4.71,6.2-10.06,9.84-14.74c1.98-2.55,3.15-5.72,4.72-8.59c0.84-1.55,1.88-3,2.59-4.6c1.25-2.82,2.42-5.68,3.42-8.59
			c0.7-2.03,1.35-4.08,1.99-6.13c0.68-2.17,1.34-4.35,2.02-6.51c0.06-0.21,0.22-0.44,0.17-0.62c-1.11-3.93,1.39-6.99,2.45-10.4
			c0.14-0.47-0.07-1.11-0.28-1.6c-0.48-1.11-0.36-1.72,0.63-2.72c1.61-1.63,2.82-3.72,3.95-5.75c1.33-2.37,2.42-4.87,3.57-7.33
			c1.21-2.59,3.07-4.46,5.78-5.44c0.4-0.14,0.8-0.32,1.16-0.54c3.22-2.02,5.42-1.73,8.07,1.08c0.21,0.23,0.47,0.41,0.84,0.72
			c0.61-1.61,1.15-3.11,1.76-4.58c0.35-0.84,0.75-1.68,1.28-2.41c1.17-1.64,2.53-1.89,4.33-1.17c3.93,1.57,6.27,4.72,7.19,8.53
			c1.03,4.25,1.21,8.71,1.74,13.08c0.3,2.54,0.55,5.08,1.14,7.71c0.59-1.29,1.24-2.56,1.77-3.87c1.05-2.57,2.17-5.13,2.99-7.78
			c0.34-1.12-0.09-2.46-0.06-3.69c0.02-0.6,0.26-1.21,0.49-1.77c0.98-2.34,2.25-4.59,2.93-7.01c0.83-2.96,1.08-6.08,1.81-9.07
			c0.15-0.63,1.24-1.36,1.97-1.44c0.72-0.08,1.52,0.61,2.29,0.96c2.93,1.31,4.23,4.06,5.78,6.58c0.18,0.3,0.15,0.72,0.21,1.09
			c0.87,5.58,0.47,11.14-0.12,16.72c-0.35,3.28-0.21,6.61-0.41,9.92c-0.08,1.38-0.48,2.74-0.71,4.11c-0.07,0.42-0.08,0.85,0.16,1.31
			c0.8-2.52,1.55-5.07,2.43-7.56c0.4-1.15,1.16-2.18,1.58-3.33c1.67-4.5,3.1-9.11,4.97-13.52c0.85-2.02,2.4-3.8,3.86-5.5
			c0.98-1.14,3.01-0.63,3.84,0.61c0.3,0.45,0.83,0.94,1.33,1.02c2.68,0.44,3.9,2.56,5.16,4.51c2.25,3.48,2.64,7.21,1.91,11.37
			c-1.14,6.49-1.68,13.08-2.46,19.64c-0.01,0.07,0.1,0.16,0.19,0.3c2.05-5.24,4.22-10.39,6.06-15.65c1.71-4.89,3.04-9.91,6.11-14.2
			c0.91-1.28,3.91-2.17,5.16-1.21c1.86,1.41,3.65,2.97,5.23,4.67c2.5,2.7,2.6,6.17,2.39,9.56c-0.36,5.82-0.89,11.63-1.39,17.45
			c-0.2,2.31-0.6,4.6-0.76,6.91c-0.45,6.28-0.82,12.56-1.22,18.84c0.16,0.07,0.32,0.13,0.49,0.2c1.21-1.36,2.52-2.64,3.57-4.12
			c0.48-0.68,0.28-1.79,0.63-2.61c0.84-1.99,1.84-3.92,2.72-5.9c0.27-0.62,0.29-1.35,0.54-1.98c0.32-0.8,0.75-1.55,1.24-2.51
			c0.03,0.02-0.29-0.14-0.98-0.47c1.09-2.45,2.48-4.82,3.17-7.39c0.51-1.88,0.04-4.01,0.13-6.02c0.04-0.91,0.41-1.8,0.58-2.7
			c0.37-1.91,0.7-3.82,1.07-5.73c0.22-1.14,0.44-2.28,0.71-3.41c0.48-1.98,1-3.95,1.49-5.93c0.59-2.42,3.21-3.43,5.65-2.44
			c3.44,1.39,4.06,4.36,4.29,7.43c0.23,3.01,0.1,6.05,0.03,9.07c-0.02,0.77-0.44,1.52-0.31,2.27c0.06,0.78,0.23,1.56,0.17,2.33
			c-0.14,1.9-0.37,3.78-0.57,5.68c0.25,0.04,0.5,0.08,0.75,0.12c0.55-1.73,1.03-3.48,1.67-5.18c0.95-2.54,2-5.03,3-7.55
			c0.06-0.14,0.02-0.33,0.07-0.48c1.25-3.48,2.66-6.92,3.72-10.46c1-3.3,2.68-6.2,4.4-9.13c2.19-3.73,6.61-4.46,9.25-1.7
			c1.65,1.72,2.7,4.72,2.73,7.16c0.09,7.24-0.41,14.49-0.79,21.72c-0.18,3.47-0.64,6.92-0.91,10.38c-0.19,2.41-0.3,4.82-0.45,7.28
			c0.25,0,0.52,0.05,0.54-0.01c1.25-3.21,2.88-6.31,2.7-9.93c-0.04-0.82,0.32-1.68,0.58-2.49c1.14-3.48,2.33-6.93,3.45-10.41
			c0.53-1.62,1.03-3.26,1.41-4.92c0.62-2.72,1.13-5.48,1.69-8.21c0.16-0.79,0.33-1.24,1.47-1.08c0.59,0.08,1.47-1.04,2.01-1.78
			c0.79-1.07,1.23-2.41,2.11-3.38c1.35-1.49,4.86-1.75,6.65-0.39c1.37,1.03,2.44,2.47,3.56,3.8c0.69,0.81,1.12,1.85,1.85,2.61
			c1.6,1.67,1.96,3.76,1.85,5.84c-0.29,5.58-0.72,11.15-1.24,16.71c-0.52,5.56-1.23,11.1-1.8,16.66c-0.07,0.71,0.18,1.45,0.28,2.17
			c0.16,0.04,0.31,0.08,0.47,0.12c1.88-3.69,3.75-7.37,5.63-11.06c-0.08-0.17-0.16-0.34-0.24-0.51c0.12,0.26,0.24,0.53,0.35,0.77
			c0.29-0.6,0.47-1.22,0.84-1.69c1.08-1.34,0.49-2.92,0.8-4.36c0.18-0.82,0.85-1.52,1.28-2.29c0.25-0.44,0.59-0.88,0.68-1.36
			c0.48-2.73,0.77-5.49,1.37-8.19c0.61-2.7,1.69-5.3,2.25-8.01c0.46-2.2,0.38-4.5,0.69-6.73c0.24-1.72,0.71-3.41,1.09-5.17
			c3.58-1.6,5.69,1.1,7.78,3.27c2.59,2.68,4.25,6.05,5,9.67c0.43,2.03,0.07,4.26-0.1,6.38c-0.47,5.65-1.07,11.28-1.51,16.93
			c-0.1,1.3,0.33,2.64,0.37,3.96c0.07,2.27,0.02,4.54,0.02,7.15c1.99-1.49,2.86-3.35,3.63-5.24c1.71-4.21,3.49-8.39,4.99-12.68
			c1.63-4.64,2.97-9.38,4.47-14.07c1.07-3.36,2.08-6.75,3.32-10.05c0.99-2.63,4.31-3.18,6.41-1.06c1.43,1.44,2.57,3.18,3.84,4.78
			c0.13,0.16,0.28,0.44,0.43,0.44c2.34,0.04,1.9,1.77,1.87,3.15c-0.18,7.63-0.38,15.26-0.65,22.89c-0.15,4.22-0.44,8.44-0.66,12.67
			c-0.02,0.35,0.05,0.7,0.48,1.27c0.51-0.67,1.17-1.28,1.5-2.03c1.99-4.43,4.05-8.84,5.79-13.37c1.16-3.02,1.83-6.23,2.74-9.35
			c0.83-2.85,1.86-5.65,2.51-8.54c1.01-4.52,1.67-9.12,2.7-13.63c0.47-2.08,1.38-4.08,2.27-6.03c0.53-1.15,4.23-1.52,5.16-0.51
			c1.37,1.49,2.88,2.98,3.76,4.75c0.84,1.71,1.26,3.77,1.32,5.69c0.13,3.95-0.42,7.93-0.09,11.85c0.3,3.58-0.91,6.84-1.21,10.27
			c-0.15,1.72,0.18,3.48,0.29,5.23c0.2,0.04,0.4,0.07,0.6,0.11c0.71-2.15,1.48-4.28,2.12-6.45c0.73-2.46,1.33-4.96,2-7.44
			c0.33-1.23,0.7-2.46,1.04-3.69c0.82-2.99,1.6-6.05,4.95-7.25c3.54-1.28,7.03,0.43,9.13,3.51c2.51,3.67,1.86,7.55,1.7,11.49
			c-0.18,4.59-0.27,9.19-0.39,13.79c-0.12,4.27-0.27,8.54-0.32,12.81c-0.02,1.26,0.26,2.52,0.44,4.14c1.99-1.93,2.03-4.21,2.49-6.33
			c0.21-1,0.48-2,0.87-2.94c0.81-1.95,1.82-3.82,2.57-5.79c0.91-2.39,1.75-4.82,2.38-7.29c0.46-1.78,0.52-3.66,0.78-5.5
			c0.3-2.14,0.67-4.27,0.92-6.41c0.19-1.7,0.36-3.41,0.31-5.11c-0.06-2.01,1.95-5.9,3.68-6.74c1.64-0.79,4.95-0.3,6.31,0.88
			c2.51,2.19,4.35,4.82,4.6,8.19c0.13,1.73-0.36,3.51-0.52,5.27c-0.53,5.73-1.12,11.45-1.54,17.19c-0.22,3-0.17,6.02-0.2,9.03
			c-0.01,0.57,0.15,1.14,0.31,2.26c1.6-2.02,2.99-3.61,4.19-5.32c1.2-1.69,2.28-3.48,3.29-5.29c0.81-1.46,1.25-3.14,2.17-4.52
			c2.15-3.22,2.69-7,4-10.51c1.18-3.15,2.13-6.49,4.78-8.98c0.99-0.93,1.45-2.46,2.07-3.75c0.63-1.32,1.21-2.68,1.71-4.05
			c0.35-0.96,0.49-1.99,0.79-2.96c0.18-0.6,0.35-1.28,0.74-1.74c3.4-3.95,7.8-5.56,12.91-5.31C433.2,77.32,434.66,77.67,436.25,77.9
			z M68.93,38.73l-0.02-0.02c-0.31,0.29-0.59,0.61-0.92,0.86c-0.88,0.65-2.45,0.55-2.42,2.3c0.86,0.07,1.62,0.13,2.37,0.18
			c-2.94,2-3.45,2.9-2.97,5.44c2.19-1.58,4.48-3.1,6.62-4.81c3.39-2.71,6.72-5.51,10-8.36c1.28-1.11,2.04-2.35,1.59-4.38
			c-0.77-3.52-2.74-6.38-4.36-9.45c-0.49-0.93-1.26-1.71-1.93-2.59c-1.85,4.34-5.69,6.36-8.71,9.15c1.29-0.32,2.5-0.69,3.58-1.27
			c1.88-1.02,3.67-2.23,5.55-3.25c0.42-0.23,1.3-0.21,1.6,0.08c0.28,0.27,0.24,1.12,0.04,1.58c-0.23,0.55-0.71,1.06-1.21,1.42
			c-1.19,0.86-2.53,1.53-3.68,2.45c-2.58,2.05-5.07,4.21-7.95,6.61c1.61-0.66,2.89-1.19,4.17-1.72c0.11,0.16,0.23,0.32,0.34,0.48
			c-1.1,0.88-2.2,1.75-3.3,2.63c-0.9,0.73-2.08,1.31-1.65,2.92c1.08-0.66,2.01-1.23,3.03-1.86C68.79,37.81,68.86,38.27,68.93,38.73z
			 M110.27,85.42c-0.32,1.3-0.75,2.41-0.83,3.54c-0.28,3.81-2.17,7.26-2.02,11.24c0.1,2.55-1.27,5.13-1.68,7.74
			c-0.42,2.69-0.71,5.44-0.62,8.14c0.13,4,0.61,8,1.02,11.99c0.29,2.75,0.39,5.57,2.2,7.92c1.35,1.74,3.76,2.14,4.91,0.61
			c1.24-1.64,2.5-3.38,3.21-5.27c1.07-2.84,1.9-5.82,2.42-8.81c0.77-4.39,1.43-8.84,1.67-13.29c0.12-2.25,0.66-5.3-2.98-5.98
			c-0.38-0.07-0.64-0.69-1-1c-2.43-2.11-2.61-5.33-3.9-8c-0.32-0.67-0.45-1.56-0.32-2.28C112.78,89.58,112.77,87.37,110.27,85.42z
			 M77.23,157.85c-0.54,0.57-0.91,1.08-1.39,1.45c-2.44,1.84-4.9,3.65-7.37,5.44c-4.14,2.99-8.28,5.98-12.46,8.9
			c-0.38,0.27-1.09,0.07-1.65,0.08c0.16-0.49,0.17-1.15,0.5-1.43c2.39-2.05,4.78-4.09,7.29-5.99c2.99-2.26,6.19-4.24,9.1-6.58
			c2.61-2.09,4.98-4.48,7.41-6.78c0.65-0.62,1.13-1.42,1.98-2.52c-10.76,8.03-21.11,15.75-31.46,23.47
			c0.06,0.18,0.11,0.35,0.17,0.53c0.7,0.19,1.39,0.54,2.09,0.54c2.58,0.01,5.16-0.07,7.73-0.18c0.43-0.02,0.92-0.3,1.26-0.6
			c1.74-1.54,3.41-3.15,5.17-4.67c1.91-1.64,3.87-3.22,5.83-4.8c0.73-0.59,1.64-0.98,2.26-1.65
			C75.08,161.55,77.08,160.42,77.23,157.85z M19.13,88.11c0.8,1.17,1.89,1.98-0.21,2.19c-0.76,0.07-1.5,0.81-2.14,1.38
			c-1.48,1.31-2.82,2.76-4.33,4.03c-2.18,1.83-4.65,3.36-6.03,5.98c-0.44,0.83-0.79,1.7-1.18,2.55c0.28,0.18,0.56,0.36,0.84,0.54
			c0.62-0.77,1.17-1.63,1.89-2.3c1.57-1.47,3.27-2.79,4.83-4.27c1.69-1.61,3.19-3.42,4.94-4.96c1.74-1.53,3.19-3.11,3.71-5.49
			c0.15-0.67,1.15-1.32,1.91-1.62c0.38-0.15,1.55,0.5,1.54,0.75c-0.03,0.73-0.46,1.45-0.76,2.17c-0.26,0.62-0.55,1.23-0.8,1.79
			c1.27,0.44,2.25,0.78,3.15,1.09c0.25-4.63,0.49-9.25,0.74-13.87c-0.13-0.05-0.27-0.11-0.4-0.16c-6.22,6.2-12.45,12.4-19.02,18.93
			c0.73-0.18,1.26-0.16,1.61-0.41c1.75-1.26,3.53-2.51,5.16-3.91C16.16,91.16,17.58,89.63,19.13,88.11z M470.35,97.09
			c-0.57,0.46-0.98,0.79-1.38,1.12c-1.87,1.54-2.17,3.8-2.95,5.92c-2.4,6.56-3.47,13.35-4.15,20.23c-0.1,1.05,0.26,2.14,0.43,3.42
			C465.77,125.29,471.13,100.57,470.35,97.09z M29.69,62.86c0.37-1.46,0.76-2.94,1.14-4.43c-0.13-0.04-0.27-0.07-0.4-0.11
			C23.18,64.05,15.94,69.78,8.7,75.51c0.13,0.19,0.26,0.39,0.39,0.58c0.76-0.29,1.85-0.37,2.21-0.92c1.03-1.62,3.33-1.77,4.08-3.76
			c0.14-0.37,1.61-0.27,2.47-0.32c0.17-0.01,0.47,0.3,0.5,0.49c0.03,0.21-0.21,0.67-0.3,0.66c-1.81-0.17-2.63,1.4-3.86,2.21
			c-1.44,0.95-2.83,2-4.19,3.07c-0.82,0.65-1.68,1.32-2.3,2.15c-0.79,1.06-1.39,2.27-1.97,3.46c-0.13,0.26,0.2,0.74,0.32,1.12
			c0.31-0.2,0.67-0.36,0.94-0.62c1.99-1.91,3.94-3.85,5.95-5.74c0.63-0.59,1.72-0.21,2.29-1.22c0.55-0.97,1.45-1.78,2.29-2.56
			c2.04-1.92,4.12-3.81,6.22-5.67c0.83-0.74,0.51-2.02,0.95-2.55c1.13-1.36,2.73-2.34,4.18-3.43C28.96,62.4,29.35,62.69,29.69,62.86
			z M19.59,62.35c0.56-0.27,0.93-0.34,1.12-0.56c0.71-0.84,1.21-1.94,2.06-2.57c1.35-0.99,3.01-1.48,4.18-2.83
			c0.59-0.69,1.64-0.98,2.41-1.54c1.07-0.78,2.6-1.44,3-2.51c1.15-3.03,1.68-6.29,2.71-9.37c1.21-3.59,2.54-7.15,4.12-10.59
			c1.49-3.24,3.37-6.31,5.07-9.45c-0.12-0.14-0.24-0.28-0.36-0.42C38.6,26,33.31,29.5,28.02,32.99c0.08,0.13,0.15,0.27,0.23,0.4
			c0.46-0.23,0.94-0.41,1.37-0.68c2.65-1.69,5.28-3.41,7.94-5.08c0.4-0.25,0.95-0.31,1.43-0.32c0.14,0,0.47,0.6,0.39,0.77
			c-0.66,1.43-1.26,2.93-2.16,4.2c-1,1.42-2.3,2.64-3.53,4c1.88,0.91,1.41,2.15,0.26,3.46c1.27,0.95,0.95,2,0.21,2.97
			c-0.72,0.94-1.46,1.89-2.37,2.63c-0.82,0.66-0.78,1.12-0.37,2.01c0.32,0.71,0.53,2.03,0.13,2.43c-2.22,2.27-4.68,4.3-6.98,6.5
			C22.78,58.01,20.03,58.92,19.59,62.35z M82.2,40.93c-0.15-0.07-0.29-0.13-0.44-0.2c0.29-0.43,0.49-1.13,0.87-1.24
			c1.24-0.37,2.18-1.82,1.82-3.07c-0.28-0.98-0.84-0.83-1.44-0.35c-2.74,2.2-5.46,4.43-8.22,6.6c-0.66,0.52-1.56,0.76-2.2,1.3
			c-2.45,2.11-4.84,4.3-6.65,5.93c-0.6,1.94-1.02,3.31-1.53,4.97c0.71-0.19,1.15-0.18,1.39-0.39c1.44-1.25,2.84-2.56,4.25-3.85
			c0.35-0.32,0.69-0.68,1.08-0.95c2.36-1.58,4.75-3.12,7.09-4.73c0.82-0.57,1.55-1.28,2.31-1.93c0.81-0.7,1.61-1.4,2.39-2.12
			c0.05-0.04-0.08-0.28-0.14-0.49C82.55,40.61,82.38,40.77,82.2,40.93z M85.17,48.72c-0.57,0.4-0.99,0.66-1.37,0.97
			c-3.57,2.95-6.94,6.17-10.76,8.75c-1.96,1.32-3.21,2.58-3.64,4.87c-0.38,2-2.22,3-4.01,2.13c0.1,1.09,0.18,2.01,0.25,2.8
			c1.15-0.19,1.97-0.33,2.25-0.37c1.03-1.03,1.86-1.85,2.69-2.68c0.95-0.95,3.08-0.58,2.99-2.07c2.2-1.55,4.11-2.88,6.21-4.36
			c-1.15-0.41-1.91-0.67-3.11-1.1c2.6-1.48,4.7-2.67,6.86-3.9c0.09-0.2,0.16-0.82,0.49-1.03C85.44,51.83,85.69,50.61,85.17,48.72z
			 M16.82,123.49c-0.08-0.11-0.17-0.23-0.25-0.34c-0.34,0.19-0.72,0.32-1.01,0.56c-1.76,1.45-3.51,2.92-5.26,4.4
			c-0.96,0.81-1.67,0.46-1.88-0.6c-0.14-0.71-0.08-1.73,0.34-2.22c3.14-3.62,6.39-7.15,9.63-10.68c1.27-1.39,2.6-2.72,3.91-4.08
			c-0.13-0.17-0.26-0.33-0.39-0.5c-0.91,0.49-1.88,0.89-2.7,1.5c-1.25,0.92-2.38,2-3.57,2.99c-3.03,2.54-6.08,5.04-9.05,7.64
			c-0.41,0.36-0.49,1.23-0.52,1.87c-0.03,0.67,0.18,1.35,0.29,2.03c0.32,1.96,0.64,3.92,1.03,6.3
			C10.81,129.16,13.81,126.32,16.82,123.49z M49.24,16.19c-0.12-0.2-0.23-0.4-0.35-0.6c-0.55,0.22-1.14,0.39-1.65,0.69
			c-1.62,0.93-3.22,1.89-4.81,2.87c-2.72,1.7-5.48,3.35-8.12,5.16c-3.74,2.56-7.41,5.23-11.08,7.88c-1.99,1.44-3.95,2.93-5.88,4.44
			c-0.32,0.25-0.44,0.75-0.65,1.13c1.34-0.31,2.31-0.94,3.33-1.48c0.82-0.43,1.81-0.6,2.53-1.14c0.93-0.7,1.57-1.79,2.52-2.46
			c2.52-1.78,5.14-3.45,7.73-5.13c2.81-1.83,5.69-3.57,8.46-5.47C43.98,20.19,46.59,18.16,49.24,16.19z M28.9,67.41
			c-1.37,1.11-2.21,1.8-3.06,2.49c-2.22,1.82-4.45,3.63-6.66,5.46c-0.86,0.72-1.7,1.47-2.51,2.25c-1.01,0.96-1.83,2.29-3.02,2.88
			c-2.39,1.19-3.59,3.45-5.36,5.18c-0.08,0.07-0.03,0.27-0.03,0.22c2.06-1.16,4.19-2.29,6.24-3.56c0.58-0.36,0.86-1.19,1.42-1.61
			c0.89-0.68,1.89-1.24,2.87-1.79c1.08-0.6,2.19-1.12,3.53-1.8c-0.2-1.04,0.8-1.55,2.03-1.91c1.09-0.32,2.16-0.73,3.62-1.23
			C28.22,72.18,28.54,69.96,28.9,67.41z M8.89,92.62c0.14,0.11,0.36,0.26,0.58,0.42c-0.59-2,1.46-0.86,1.62-1.78
			c0.28-0.82,0.73-1.51,1.27-2.12c0.3-0.34,0.82-0.5,1.12-0.84c1.45-1.72,2.82-3.5,4.3-5.2c1.21-1.39,2.52-2.7,3.79-4.05
			c-0.14-0.13-0.27-0.26-0.41-0.39c-2.13,1.76-4.13,3.73-6.44,5.21c-2.06,1.32-4.19,2.5-5.92,4.26c-0.69,0.7-1.69,1.29-2.02,2.13
			c-0.72,1.87-1.11,3.87-1.64,5.82c0.2,0.08,0.39,0.16,0.59,0.24C6.77,95.09,7.82,93.87,8.89,92.62z M26.87,123.67
			c-0.12-0.14-0.23-0.28-0.35-0.42c-0.61,0.45-1.16,1.12-1.85,1.32c-3.69,1.11-5.95,4.23-8.97,6.27c-1.32,0.9-2.47,2.08-3.86,2.83
			c-2.4,1.29-3.53,3.69-2.51,6.51C15.24,134.62,21.06,129.14,26.87,123.67z M18.96,32.91c8.16-5.79,15.99-11.36,23.83-16.93
			c-0.16-0.22-0.32-0.45-0.47-0.67c-1.42,1.03-2.79,2.15-4.28,3.06c-2.94,1.79-6,3.39-8.92,5.22c-2.63,1.65-5.1,3.56-7.72,5.22
			C20.02,29.68,19.12,30.72,18.96,32.91z M102.42,103.39c0.3-1.26,1.15-2.73,0.73-3.53c-0.59-1.12-0.08-1.74,0.2-2.5
			c0.79-2.12,1.81-4.16,2.52-6.3c0.74-2.23,1.19-4.55,1.8-6.82c0.28-1.03,0.62-2.04,0.93-3.06c-0.12-0.1-0.23-0.19-0.35-0.29
			c-1.27,0.72-2.55,1.43-3.84,2.16c2.4,3.25,2.43,3.3,0.12,5.11c-0.95,0.74-1.66,1.28-0.28,2.27c0.21,0.15,0.25,0.89,0.07,1.15
			c-0.86,1.26-1.74,2.52-2.78,3.62c-0.63,0.67-1.04,1.04-0.11,1.74c1.11,0.83,1.1,1.92,0.39,2.99c-0.69,1.04-1.48,2.01-2.16,2.93
			C100.49,103.03,101.35,103.19,102.42,103.39z M142.86,111.55c-7.12,7.26-7.43,7.73-6.64,10.83c0.6-0.3,1.19-0.6,1.9-0.96
			c-0.37-0.15-0.68-0.28-1-0.41c4.48-5.69,4.48-5.69,6.04-5.17c-0.65,0.89-1.31,1.79-1.96,2.68c0.25,0.21,0.5,0.42,0.76,0.63
			c1.27-1.3,2.56-2.58,3.77-3.93c0.17-0.2-0.08-0.78-0.14-1.18c-0.73,1.87-1.8,1.45-3.02,0.8c0.63-1.2,2.02-2.92,1.67-3.4
			c-1.16-1.62,0.45-1.86,0.84-2.7c0.41-0.88,0.68-1.81,1.02-2.73c-0.15-0.08-0.29-0.15-0.44-0.23c-1.8,2-3.6,4-5.37,5.98
			C141.27,111.68,142.07,111.62,142.86,111.55z M71.39,84.87c0.49-0.29,1.1-0.62,1.09-0.65c-1-2.09,0.75-1.19,1.27-1.32
			c0.69-1.02,1.29-1.9,1.89-2.78c-0.15-0.2-0.3-0.39-0.46-0.59c-1.79,1.01-3.58,2.02-5.47,3.08c-0.61,1.86,0.61,3.06,1.86,4.31
			c2.56,2.55,3,2.66,4.87-0.33c2.34-3.74,3.15-4.66,1.79-6.79c-0.29,0.56-0.49,1.37-1.01,1.88c-1.61,1.58-3.33,3.04-4.94,4.48
			C72.12,85.91,71.76,85.4,71.39,84.87z M65.1,62.77c0.48-0.3,1.06-0.47,1.3-0.86c2.64-4.29,6.89-6.67,10.88-9.39
			c1.62-1.1,3.03-2.5,4.54-3.76c-0.11-0.13-0.22-0.26-0.34-0.4c-1.99,0.97-3.98,1.94-6.12,2.99c-0.45-0.31-1.23-1.17-1.29,0.63
			c-0.01,0.43-0.53,0.89-0.9,1.24c-0.34,0.32-0.8,0.51-0.86,0.55c-1,0.32-2.14,0.44-2.18,0.72c-0.29,2.02-2.02,2.41-3.35,3.26
			C64.84,59.01,64.4,60.25,65.1,62.77z M20.65,152.72c-2.02-2.01-2.06-2.1-0.28-3.8c0.82-0.79,1.79-1.43,2.73-2.09
			c0.95-0.66,1.13-1.35,0.59-2.43c-2.71,2.28-5.42,4.58-8.27,6.98c0.86,0.95,1.89,1.9,2.7,3c0.77,1.05,1.63,1.04,2.43,0.35
			c0.99-0.84,1.8-1.89,2.67-2.87c0.69-0.77,1.36-1.55,2.22-2.54C22.7,149.26,22.03,151.36,20.65,152.72z M68.66,80.71
			c0.35-0.2,0.69-0.4,1.04-0.6c-0.33-0.6-0.52-1.49-1.02-1.73c-1.54-0.74-1.85-1.66-0.72-2.9c0.67-0.74,1.34-1.49,1.98-2.25
			c1.36-1.63,2.49-3.46,4.69-4.25c0.89-0.32,1.6-1.21,2.3-1.93c0.15-0.15-0.09-0.67-0.14-1.02c-1.09,0.22-2.19,0.39-3.25,0.71
			c-0.3,0.09-0.73,0.85-0.65,0.96c1,1.3-0.32,1.26-0.89,1.65c-1.68,1.16-3.4,2.27-5.01,3.52c-0.35,0.27-0.5,1.06-0.44,1.57
			c0.18,1.38,0.43,2.77,0.84,4.1C67.62,79.31,68.22,79.98,68.66,80.71z M26.88,160.06c-0.92-0.39-2.21-0.53-2.47-1.12
			c-0.53-1.2,0.62-1.65,1.63-2.01c0.36-0.13,0.84-0.49,0.91-0.81c0.43-2.02,2.03-3.02,3.45-4.2c0.26-0.22,0.33-0.68,0.49-1.02
			c-0.17-0.17-0.33-0.33-0.5-0.5c-0.93,0.77-1.87,1.53-2.8,2.31c-0.16,0.13-0.23,0.37-0.4,0.5c-1.52,1.11-3.15,2.1-4.53,3.37
			c-0.56,0.52-1.06,1.95-0.75,2.41c0.85,1.28,2.14,2.28,3.3,3.43C25.95,161.37,26.52,160.56,26.88,160.06z M126.44,83.19
			c-3.7,3.07-7.1,5.88-10.88,9.01c4.96-0.37,8.07-2.98,11.13-6.01C126.63,85.57,126.55,84.58,126.44,83.19z M23.81,133.29
			c-1.33-0.77-2.55-0.47-3.29,0.42c-0.84,1.01-1.7,2.01-2.66,2.91c-2.21,2.05-4.5,4.02-6.72,6.06c-0.31,0.28-0.55,0.82-0.51,1.22
			c0.03,0.27,0.6,0.71,0.9,0.68c0.47-0.04,1-0.32,1.34-0.66c1.56-1.62,2.98-3.37,4.59-4.93C19.45,137.06,21.58,135.28,23.81,133.29z
			 M125.65,74.01c-0.77,0.34-0.99,0.38-1.14,0.51c-2.69,2.28-5.43,4.5-8.03,6.88c-0.81,0.74-1.24,1.89-1.84,2.85
			c0.16,0.13,0.33,0.26,0.49,0.39c0.34-0.08,0.78-0.06,1.01-0.27c2.97-2.59,5.95-5.17,8.83-7.87
			C125.42,76.08,125.37,75.13,125.65,74.01z M508.96,123.25c-0.24-0.18-0.48-0.35-0.72-0.53c-1.57,1.8-3.23,3.54-4.69,5.42
			c-1.42,1.83-3.11,3.61-2.94,6.37c1.46-1.21,2.82-2.16,3.94-3.34c0.96-1.01,1.49-2.46,2.51-3.39
			C508.47,126.49,509.1,125.07,508.96,123.25z M26.56,110.53c-3.43,3.23-7.02,6.61-10.61,9.99c1.31-0.49,2.36-1.38,3.49-2.14
			c1.72-1.15,3.51-2.2,5.23-3.34C26.65,113.75,27.07,112.44,26.56,110.53z M139.47,146.74c1.18-0.85,2.26-1.63,3.18-2.3
			c0.53-1.42,1.05-2.82,1.59-4.26c-0.98,0.11-1.56,0.17-2.13,0.24c0.43-0.96,0.75-1.69,1.08-2.43c-1.96,0.48-2.77,1.43-1.68,3.19
			c-0.29-0.11-0.4-0.23-0.53-0.33c-0.19-0.14-0.39-0.27-0.35-0.24c-0.61,0.9-1.08,1.74-1.69,2.47
			C137.87,144.38,138.02,145.68,139.47,146.74z M189.94,83.9c0.11,0.16,0.22,0.32,0.33,0.48c0.47-0.06,0.94-0.16,1.41-0.17
			c1.33-0.03,2.41,1.18,1.81,2.15c-1.73,2.78-3.26,5.78-5.47,8.12c-1.45,1.53-0.79,2.39-0.34,3.87c0.26-0.35,0.41-0.49,0.49-0.67
			c0.74-1.69,1.36-3.46,2.26-5.05c0.36-0.63,1.39-0.85,2.04-1.35c0.35-0.27,0.67-0.71,0.77-1.13c0.18-0.75,0.16-1.55,0.27-2.32
			c0.14-0.94,0.62-1.95,0.43-2.8c-0.24-1.07-1.03-2.01-1.58-3C191.54,82.65,190.74,83.27,189.94,83.9z M501.58,148.7
			c2.7-3.24,5.13-6.16,7.56-9.07c-0.18-0.23-0.36-0.46-0.54-0.69c-0.87,0.42-1.86,0.68-2.58,1.28c-1.24,1.03-2.19,2.45-3.49,3.38
			C500.79,144.84,500.7,146.28,501.58,148.7z M80.96,145.63c-2.27,0.68-11.33,7.32-12.57,10.21
			C73.42,153.49,77.39,149.81,80.96,145.63z M134.44,94.09c3.24-4.08,6.88-8.66,10.51-13.24C139.53,84.11,135.34,88.29,134.44,94.09
			z M96.3,130.39c0.13,0.14,0.26,0.29,0.4,0.43c1.19-0.51,2.34-1.24,3.59-1.46c1.47-0.26,1.89-0.91,1.68-2.28
			c-0.22-1.47-0.33-2.97-0.6-4.43c-0.04-0.22-0.86-0.57-1.06-0.45c-1.21,0.76-1.85,1.74-0.8,3.16c0.21,0.29,0.33,0.96,0.16,1.16
			c-0.91,1.08-1.94,2.07-2.91,3.11C96.56,129.84,96.45,130.13,96.3,130.39z M24.24,38.06c-0.11-0.12-0.21-0.24-0.32-0.36
			c-2.58,1.48-5.09,3.13-7.77,4.4c-2.03,0.96-2.05,2.86-3.2,4.77C17.82,44.74,20.51,40.77,24.24,38.06z M192.13,104.37
			c-0.13,0.19-0.38,0.56-0.62,0.93c-0.46,0.7-0.86,1.46-1.4,2.09c-0.98,1.15,0.14,1.49,0.65,2.16c0.21,0.27,0.01,0.97-0.18,1.4
			c-0.94,2.12-0.67,3.13,1.54,3.73C192.13,111.13,192.13,107.7,192.13,104.37z M144.78,120.08c-1.4-1.16-1.44-1.1-2.48,0.04
			c-1.16,1.28-2.5,2.39-3.66,3.67c-1.08,1.2-2.02,2.52-3.02,3.79c0.22,0.2,0.44,0.41,0.67,0.61
			C139.34,125.78,141.84,122.76,144.78,120.08z M504.34,153.56c2.04-2.28,3.85-4.35,3.87-7.46c-1.1,0.6-2.02,1.35-2.9,2.15
			c-0.87,0.78-1.7,1.6-2.76,2.6C503.01,151.55,503.63,152.49,504.34,153.56z M136.29,142.54c2.45-3.35,4.8-6.56,7.16-9.77
			c-1.63,0.81-3.04,1.8-4.27,2.99c-1.01,0.98-1.68,2.32-2.71,3.27C135.41,140.01,135.16,140.9,136.29,142.54z M22.9,138.82
			c-0.67,0.58-0.99,0.93-1.37,1.18c-0.87,0.56-1.92,0.93-2.63,1.63c-1.75,1.74-3.37,3.62-4.99,5.48c-0.24,0.28-0.2,0.79-0.29,1.2
			c3.29-2.45,5.84-5.52,9.52-7.51C23.1,140.46,23.01,139.72,22.9,138.82z M506.78,53.55c0.92,0.06,1.56,0.3,1.81,0.08
			c1.23-1.06,2.34-2.26,3.52-3.38c0.42-0.39,0.94-0.67,1.37-1.06c0.62-0.56,1.25-1.13,1.75-1.79c0.11-0.15-0.22-0.8-0.5-1.01
			c-0.19-0.14-0.77-0.03-0.98,0.17C511.55,48.73,509.39,50.93,506.78,53.55z M74.96,145.93c0.15,0.18,0.31,0.35,0.46,0.53
			c1.58-1.36,3.14-2.74,4.73-4.07c0.9-0.75,1.84-1.92,2.73,0.07c1.91-3.3,1.96-3.49,1.01-4.74C80.9,140.47,77.93,143.2,74.96,145.93
			z M187.85,132.03c1.13-0.77,2.01-1.29,2.8-1.92c1.98-1.6-0.3-3.92,1.38-5.78C190.27,124.74,187.68,129.56,187.85,132.03z
			 M52.2,11.74c0.2,0.64,0.37,1.15,0.57,1.79c0.54-0.03,1.15-0.06,2.12-0.12c-0.54-0.44-0.78-0.64-1.29-1.05
			c2.44-1.55,4.69-2.97,6.94-4.39c0.02-0.15,0.05-0.31,0.07-0.46c-0.67-0.11-1.55-0.55-1.98-0.28C56.39,8.66,54.26,10.27,52.2,11.74
			z M19.67,124.21c0.12,0.23,0.24,0.45,0.35,0.68c0.44-0.19,0.89-0.38,1.33-0.58c0.49-0.22,0.98-0.45,1.46-0.69
			c0.32-0.16,0.62-0.35,0.93-0.53c0.54-0.32,1.07-0.64,1.6-0.97c0.18,0.16,0.36,0.32,0.53,0.48c0.33-1.29,0.66-2.57,0.99-3.86
			c-0.21-0.15-0.43-0.3-0.64-0.45C24.05,120.27,21.86,122.24,19.67,124.21z M43.56,172.86c0.05,0.19,0.11,0.38,0.16,0.57
			c1.55,0.4,3.09,0.8,4.26,1.1c0.26-1.17,0.5-1.99,0.6-2.83c0.06-0.52,0.08-1.21-0.2-1.56c-0.21-0.26-1.09-0.29-1.42-0.06
			C45.77,170.92,44.68,171.92,43.56,172.86z M509.4,109.79c-0.22-0.2-0.43-0.39-0.65-0.59c-1.94,2.15-3.97,4.23-5.76,6.5
			c-0.58,0.73-0.55,1.95-0.79,2.94c0.15,0.03,0.3,0.06,0.45,0.09C504.9,115.74,507.15,112.77,509.4,109.79z M84.39,57.24
			c-1.21,0.94-2.53,1.77-3.58,2.87c-0.99,1.03-3.04,1.23-2.9,3.39c1.77-1.54,4.86-0.64,5.67-3.47
			C85.65,59.72,84.4,58.25,84.39,57.24z M56.66,5.97c-1.95-0.72-3.58-1.56-5.29-0.47c-1.98,1.26-3.87,2.67-5.8,4.01
			c0.05,0.1,0.11,0.21,0.16,0.31c2.12-1.1,4.23-2.2,6.42-3.34c0.37,0.48,0.75,0.97,1.27,1.66C54.43,7.45,55.41,6.8,56.66,5.97z
			 M26.34,47.09c-0.17-0.18-0.33-0.35-0.5-0.53c-4.67,3.82-9.35,7.63-14.02,11.45c0.17,0.21,0.34,0.42,0.52,0.63
			C17.01,54.79,21.67,50.94,26.34,47.09z M230.46,91.11c-0.24-0.05-0.48-0.09-0.71-0.14c-1.44,4.22-2.87,8.44-4.31,12.65
			c0.27,0.1,0.53,0.2,0.8,0.3c1.44-3.78,2.9-7.56,4.29-11.36C230.68,92.15,230.49,91.6,230.46,91.11z M165.01,104.43
			c0.99-1.26,1.06-3.56,3.54-2.51c0.1,0.04,0.7-0.64,0.75-1.03c0.18-1.29,0.23-2.59,0.34-4.05
			C167.08,98.47,164.56,102.66,165.01,104.43z M98.52,89.89c0.93-0.95,1.87-1.91,2.81-2.86c-2.23,0.98-4.31,2.17-6.44,3.28
			c-1.38,0.72-2.12,1.75-1.97,3.34C94.76,92.41,96.6,91.17,98.52,89.89z M482.81,100.35c-1.72,2.58-3.4,5.11-5.09,7.64
			c0.15,0.1,0.3,0.2,0.45,0.31c1.41-1.31,2.87-2.58,4.23-3.94C483.96,102.8,484.09,101.69,482.81,100.35z M388.53,89.1
			c2.11,2.6,2.16,5.21,0.24,7.91c1.2-1.37,1.99-2.98,4.01-3.16C392.51,91.85,390.82,89.68,388.53,89.1z M35.58,161.46
			c-0.21-0.19-0.41-0.39-0.62-0.58c-1.47,1.3-3,2.54-4.37,3.93c-0.29,0.29-0.03,1.12-0.03,1.7c0.55-0.07,1.29,0.05,1.6-0.26
			c0.79-0.78,1.41-1.74,2.06-2.65C34.7,162.91,35.12,162.18,35.58,161.46z M164.48,121.02c1.19-2.43,4.52-3.63,3.36-6.96
			C165.37,114.9,163.98,117.64,164.48,121.02z M65.11,9.39c-1.7-0.7-6.56,2.46-8.18,4.99C60.5,13.97,62.21,11.06,65.11,9.39z
			 M201.1,135.76c-0.18-0.1-0.36-0.21-0.54-0.31c-5.25,5.26-5.56,5.76-4.28,7.82C197.97,140.64,199.53,138.2,201.1,135.76z
			 M142.74,130.22c0.4-0.18,0.84-0.31,1.19-0.56c0.6-0.43,1.15-1.36,1.72-1.36c2.52-0.01,1.71-1.83,1.88-3.15
			c-0.3,0.44-0.59,0.87-1.05,1.54c-0.48-1.53-0.87-2.76-1.38-4.39c-0.47,0.46-0.75,0.74-1.07,1.06
			C146.05,124.77,144.78,127.73,142.74,130.22z M258.75,132.87c0.21,0.08,0.42,0.15,0.63,0.23c1.43-2.47,2.86-4.94,4.54-7.83
			c-2.63,1.09-2.7,4.45-5.72,4.32C258.4,130.75,258.57,131.81,258.75,132.87z M160.52,131.86c0.43,2.01,1.5,3.59,3.36,4.56
			c0.57,0.3,1.46,0.63,1.9,0.38c0.47-0.26,0.59-1.18,0.75-1.55c-1.37-0.34-2.86-0.28-3.51-1c-0.61-0.67-0.33-2.16-0.42-3.06
			C162.19,131.33,161.47,131.56,160.52,131.86z M11.38,54.53c0.13,0.14,0.27,0.29,0.4,0.43c3.66-3.02,7.31-6.05,10.97-9.07
			c-0.13-0.16-0.26-0.33-0.4-0.49C18.54,48.26,14.73,51.11,11.38,54.53z M126.78,89.4c-2.31,2-4.6,3.98-6.88,5.95
			c0.11,0.13,0.23,0.27,0.34,0.4c1.7-0.96,3.43-1.86,5.08-2.89C126.46,92.15,128.17,91.59,126.78,89.4z M121.04,83.09
			c0.14,0.18,0.28,0.37,0.42,0.55c0.73-0.41,1.43-0.9,2.2-1.21c0.69-0.28,1.45-0.38,2.52-0.64c-0.04-0.86-0.1-2.09-0.2-3.96
			C124.1,79.84,122.57,81.46,121.04,83.09z M295.19,137.12c0.18,0.11,0.36,0.23,0.54,0.34c2.93-2.06,4.52-5.19,6.12-8.34
			c-0.92,0.46-1.59,1.13-2.27,1.81c-1.57,1.57-1.56,4.38-4.1,5.23C295.3,136.22,295.28,136.79,295.19,137.12z M233.05,115.52
			c-0.18-0.07-0.36-0.14-0.55-0.21c-0.09,1.81-0.18,3.62-0.27,5.43c0.18,0.04,0.36,0.07,0.54,0.11c1.1-2.4,2.2-4.79,3.52-7.65
			C234.89,114.21,233.97,114.86,233.05,115.52z M16.98,58.46c0.2,0.23,0.41,0.46,0.61,0.68c2.85-2.32,5.69-4.64,8.54-6.97
			c-0.22-0.26-0.43-0.53-0.65-0.79C22.65,53.75,19.82,56.1,16.98,58.46z M347.58,100.18c-0.14-0.03-0.28-0.06-0.43-0.08
			c-1.35,1.86-2.71,3.73-4.06,5.59c0.18,0.18,0.37,0.36,0.55,0.54c1.15-0.75,2.31-1.5,3.46-2.26c0.16,0.13,0.32,0.26,0.47,0.4
			C347.58,102.97,347.58,101.57,347.58,100.18z M215.95,139.51c0.42-2.28,0.83-4.52,1.33-7.23c-1.53,2.56-2.82,4.73-4.3,7.23
			C214.31,139.51,215.18,139.51,215.95,139.51z M145.56,142.72c0.66-3.35,1.22-6.24,1.79-9.13c-0.15-0.05-0.3-0.1-0.46-0.15
			c-0.17,0.23-0.34,0.45-0.5,0.68C144.64,136.61,144.28,139.29,145.56,142.72z M121.82,99.29c1.39,0.64,5.36-1.11,5.6-2.35
			c0.09-0.48-0.09-1.03-0.24-1.51c-0.02-0.06-0.67-0.08-0.86,0.07C124.83,96.7,123.39,97.96,121.82,99.29z M303.44,123.97
			c0.41,0.44,0.81,0.87,1.22,1.31c0.17-0.77,0.2-1.62,0.55-2.3c0.68-1.32,1.57-2.53,2.31-3.83c0.13-0.22-0.06-0.63-0.1-0.95
			c-0.14-0.04-0.27-0.08-0.41-0.12c-1.34,2.29-2.68,4.57-4.16,7.09c0.06,0.19,0.26,0.79,0.32,1
			C303.24,125.57,303.34,124.77,303.44,123.97z M488.87,138.15c-0.21-0.29-0.43-0.57-0.64-0.86c-0.98-0.15-2.06-0.64-2.93-0.39
			c-1.86,0.53-2.61-0.2-2.83-1.95c-1.56,1.75-1.5,2.42,0.6,3.05c1.43,0.43,3.02,0.33,4.55,0.4
			C488.02,138.42,488.45,138.24,488.87,138.15z M115.22,78.92c0.2,0.21,0.41,0.42,0.61,0.63c2.04-1.97,4.08-3.95,6.12-5.92
			c-0.16-0.17-0.32-0.34-0.48-0.51C119.4,75.08,116.37,75.99,115.22,78.92z M475.81,106.35c0.16,0.08,0.31,0.17,0.47,0.25
			c1.58-2.37,3.17-4.73,4.75-7.1c-0.19-0.12-0.37-0.24-0.56-0.36C478.67,101.38,475.73,102.88,475.81,106.35z M65.44,26.85
			c2.4-2.18,4.73-4.3,7.06-6.41c-1.95,0.77-3.62,1.9-5.33,2.97C65.89,24.2,64.96,25.11,65.44,26.85z M136.04,135.08
			c1.5-2.11,3-4.22,4.5-6.33C137.87,129.6,135.19,133.16,136.04,135.08z M65.67,172.18c0.14,0.16,0.29,0.32,0.43,0.48
			c1.74-1.05,3.48-2.1,5.22-3.14c1.05-0.63,1.11-1.41,0.44-2.42C69.68,168.84,67.68,170.51,65.67,172.18z M79.4,70.01
			c0.37-0.66,0.52-1.25,0.74-1.28c0.95-0.11,1.92-0.05,3.18-0.05c0.12-0.83,0.28-1.99,0.45-3.14c-0.18-0.13-0.36-0.25-0.55-0.38
			c-1.41,1.17-2.85,2.32-4.21,3.56C78.88,68.84,79.23,69.49,79.4,70.01z M447.01,118.68c-1.29,2.7-2.39,5-3.68,7.7
			C446.43,124.28,448.01,121.17,447.01,118.68z M258.32,119.26c1.5-2.67,2.78-4.94,4.06-7.21c-0.15-0.08-0.3-0.17-0.44-0.25
			C259.64,113.69,257.72,117.14,258.32,119.26z M191.18,123.57c0.13-0.03,0.27-0.05,0.4-0.08c0-1.83,0-3.66,0-5.52
			c-1.95,0.03-1.51,2.02-2.11,3.07C189.24,121.43,190.56,122.7,191.18,123.57z M346.62,109.58c-1.37,1.85-2.62,3.53-3.86,5.2
			c0.15,0.11,0.3,0.21,0.45,0.32C345.79,114.07,347.37,111.75,346.62,109.58z M233.84,136.08c0.85-2.54,1.53-4.56,2.2-6.58
			c-0.17-0.1-0.33-0.2-0.5-0.3c-0.88,1.2-1.99,2.31-2.54,3.65C232.72,133.54,233.43,134.64,233.84,136.08z M113.51,144.28
			c3.82,0.39,6.88-1.26,6.86-3.6c-1.77,0.78-2.78,3.51-5.17,2.11C114.61,143.31,114.12,143.74,113.51,144.28z M482.89,109.65
			c-0.19-0.08-0.37-0.15-0.56-0.23c-1.3,1.78-2.6,3.56-3.89,5.34c0.14,0.13,0.29,0.26,0.43,0.39c1.32-1.1,2.64-2.19,4.14-3.43
			C482.98,111.19,482.94,110.42,482.89,109.65z M501.65,125.05c0.18,0.13,0.36,0.26,0.54,0.39c1.6-2.15,3.19-4.3,4.79-6.45
			c-0.16-0.12-0.32-0.24-0.49-0.36C504.15,120.25,502.83,122.59,501.65,125.05z M144.98,143.43c-0.05-0.03-0.1-0.06-0.15-0.09
			c-0.88,1.51-1.77,3.03-2.64,4.54c-0.05,0.09-0.14,0.23-0.11,0.29c0.22,0.4,0.38,0.97,0.73,1.14c0.45,0.22,1.06,0.11,1.6,0.14
			c-0.04-0.45-0.08-0.91-0.14-1.36c-0.06-0.46-0.26-0.94-0.17-1.37C144.33,145.62,144.68,144.53,144.98,143.43z M39.24,165.87
			c-2.08,0.55-3.33,1.84-4.53,3.29C36.2,170.24,38.5,168.61,39.24,165.87z M348.33,81.93c-0.35-0.84-0.87-2.12-1.52-3.68
			c-0.72,2.3-1.27,4.07-1.78,5.71C345.89,83.43,346.88,82.82,348.33,81.93z M116.58,71.01c0.2,0.11,0.39,0.23,0.59,0.34
			c1.12-1.31,2.25-2.62,3.25-3.79c-0.79-0.36-1.38-0.62-2.2-0.99C117.68,68.02,117.13,69.52,116.58,71.01z M463.31,136.97
			c-1.38-1.49-2.52-1.23-3.52-0.17c-0.33,0.35-0.43,0.92-0.64,1.4c0.52,0.16,1.15,0.6,1.53,0.44
			C461.62,138.22,462.43,137.54,463.31,136.97z"/>
		<path d="M537.2,129.13c1.13-1.37,2.58-2.59,3.32-4.15c1.94-4.1,3.79-8.27,5.26-12.55c1.48-4.32,2.49-8.8,3.65-13.22
			c1.31-5.02,4.58-8.78,7.98-12.43c1.01-1.08,2.4-1.85,3.71-2.59c2.38-1.34,4.58,0.08,6.77,0.75c0.53,0.16,0.85,1.03,1.39,1.74
			c1.7-2,3.84-2.89,6.37-2.59c0.61,0.07,1.5,0.3,1.72,0.74c1.43,2.87,3.03,5.72,3.96,8.77c0.97,3.18,1.25,6.57,1.88,10.1
			c3.79-2.21,6.95-4.67,7.66-9.35c0.53-3.47,1.43-6.88,2.14-10.32c0.16-0.78,0.28-1.58,0.33-2.37c0.2-3.05,3.87-6.47,6.42-5.47
			c1.65,0.65,3.01,2.33,4.19,3.79c2.36,2.92,1.92,6.49,1.77,9.9c-0.17,3.96-0.5,7.91-0.89,11.86c-0.2,2.04-0.71,4.04-0.99,6.08
			c-0.18,1.37-0.2,2.75-0.03,4.25c0.96-2.16,2.14-4.26,2.82-6.51c1.25-4.17,2.72-8.21,5.3-11.77c0.19-0.26,0.38-0.57,0.39-0.87
			c0.02-0.5-0.27-1.39-0.12-1.46c0.95-0.45,1.96-0.87,2.99-1.02c1.09-0.16,2.24-0.12,3.33,0.04c0.94,0.14,1.84,0.57,2.76,0.88
			c0.83,0.28,1.67,0.55,2.47,0.89c0.96,0.41,2.02,0.73,2.79,1.38c0.94,0.79,1.26,2.25,2.89,2.33c0.24,0.01,0.65,1.31,0.59,1.97
			c-0.74,7.99-0.79,15.98-0.06,23.96c0.38,4.14,1.14,8.24,1.44,12.38c0.07,0.98-0.85,2.78-1.56,2.92c-2.31,0.46-4.84,0.81-7.08,0.29
			c-3.75-0.87-5.77-3.87-7.16-7.37c-2.12-5.32-2.31-10.89-2.22-16.47c0.06-3.87,0.52-7.74,0.79-11.61c0.04-0.64,0.01-1.28-0.41-2.07
			c-0.75,1.34-1.68,2.6-2.2,4.02c-1.53,4.22-3.05,8.46-4.29,12.77c-1.12,3.9-1.97,7.89-2.72,11.88c-0.46,2.41-0.57,4.88-0.72,7.34
			c-0.11,1.71-0.17,3.82-1.76,4.36c-1.59,0.55-3.77,0.36-5.37-0.29c-1.9-0.77-3.49-2.34-5.16-3.63c-1.65-1.27-2.26-3.04-2.23-5.08
			c0.02-1.44-0.1-2.89,0-4.33c0.11-1.64,0.45-3.27,0.57-4.91c0.15-2.1,0.1-4.22,0.28-6.31c0.15-1.75,0.49-3.48,0.8-5.21
			c0.2-1.14,0.54-2.25,0.7-3.39c0.07-0.5-0.13-1.04-0.27-2c-1.5,1.73-2.64,3.12-3.86,4.44c-0.61,0.66-1.29,1.59-2.06,1.74
			c-2.98,0.57-2.76,2.93-3.21,5.03c-0.91,4.18-1.91,8.35-2.93,12.51c-0.37,1.51-0.64,3.1-1.37,4.44c-1.53,2.81-3.01,5.77-5.11,8.14
			c-2.5,2.82-6.66,3.34-10.72,2.16c-0.85-0.25-1.76-0.29-2.62-0.52c-0.49-0.13-0.96-0.42-1.4-0.69c-0.45-0.28-0.84-0.9-1.28-0.92
			c-2.82-0.14-3.37-3.46-5.82-4.08c-0.16-0.04-0.17-0.58-0.3-0.87c-0.42-0.94-0.71-2-1.33-2.78c-0.76-0.96-1.5-1.8-1.1-3.14
			c0.1-0.34,0.05-0.78-0.09-1.11c-0.67-1.65-1.39-3.27-2.13-5c-0.22,0.31-0.6,0.61-0.67,0.98c-0.88,4.7-4.01,8.07-6.81,11.63
			c-0.93,1.17-1.89,2.51-3.15,3.19c-1.98,1.07-5.26,1.27-6.96-1.05c-1.09-1.49-2.19-2.98-3.27-4.49c-0.15-0.21-0.17-0.59-0.35-0.69
			c-2.94-1.51-2.01-4.05-1.78-6.43c0.07-0.71-0.21-1.44-0.25-2.17c-0.03-0.55,0.08-1.11,0.1-1.67c0.17-4.7,0.28-9.4,0.53-14.09
			c0.11-1.94,0.59-3.86,0.81-5.79c0.15-1.32-0.01-2.69,0.25-3.98c0.36-1.78,1.02-3.49,1.51-5.24c0.57-2.04,1.09-4.09,1.67-6.28
			c1.08-0.42,2.1-0.09,2.27,1.21c0.16,1.22,0.92,1.46,1.79,1.71c0.67,0.2,1.36,0.35,2.05,0.45c2.47,0.34,3.26,2.12,3.63,4.23
			c0.37,2.12,0.89,4.23,0.99,6.37c0.1,2.23-0.21,4.49-0.4,6.73c-0.28,3.29-0.6,6.57-0.93,9.85c-0.2,1.92-0.55,3.82-0.67,5.74
			c-0.09,1.37,0.1,2.75,0.17,4.12C536.81,128.92,537,129.03,537.2,129.13z M563.36,124.95c-1.07,3.57-0.17,6.68,1.1,9.71
			c0.2,0.48,0.88,0.92,1.41,1.04c0.35,0.08,1.1-0.35,1.23-0.7c1.34-3.73,2.87-7.42,3.79-11.26c0.79-3.32,0.99-6.8,1.21-10.22
			c0.11-1.77,0.35-3.58-1.69-4.98c-1.75-1.21-3.04-3.2-3.29-5.5c-0.17-1.55-0.12-3.12-0.16-4.68c-0.02-0.69,0-1.39,0-2.08
			c-0.2-0.03-0.4-0.06-0.6-0.1c-0.83,2.26-2.05,4.45-2.4,6.78c-0.98,6.46-1.53,12.98-2.4,19.46
			C561.34,123.92,561.41,124.85,563.36,124.95z M560.12,101.2c-2.84,3.19-5.6,6.28-8.35,9.36
			C554.42,110.06,560.61,102.86,560.12,101.2z M553.94,133.66c3.8-1.35,4.61-1.77,3.3-4.79
			C556.17,130.42,555.19,131.84,553.94,133.66z"/>
		<path d="M396.58,28.21c1.57-0.1,3.13-0.23,4.7-0.27c0.38-0.01,0.93,0.13,1.12,0.4c1.64,2.3,3.29,4.59,4.78,6.99
			c1.95,3.13,1.77,6.74,2.11,10.23c0.59,6.02-0.45,11.86-1.79,17.67c-0.46,1.98-0.86,4.05-1.75,5.85c-0.78,1.58-1.98,3.15-3.4,4.17
			c-4.43,3.2-10.15,3.59-15.2,0.71c-1.67-0.95-3.29-2.01-5.01-2.87c-2.89-1.44-3.28-4.12-3.65-6.85c-0.24-1.74-0.59-3.48-0.61-5.23
			c-0.02-1.7,0.26-3.42,0.5-5.11c0.26-1.83,0.73-3.64,0.94-5.48c0.49-4.41,1.58-8.69,3.35-12.71c0.99-2.24,1.79-5.03,4.66-5.82
			c3.03-0.83,6.13-1.45,9.2-2.16C396.53,27.89,396.55,28.05,396.58,28.21z M398.79,68.53c3.73,0.01,7.24-7.13,5.74-11.11
			c-0.93,1.1-1.81,2.14-2.51,2.97C405.12,64.83,400.96,66.18,398.79,68.53z M391.45,30.96c-0.91-0.29-2,0.81-2.96,1.47
			c-1.56,1.06-2.16,2.84-2.41,4C387.67,34.81,389.53,32.92,391.45,30.96z M391.12,72.82c0.86,0.32,1.4,0.66,1.96,0.69
			c0.44,0.03,0.9-0.33,1.35-0.52c-0.85-1.76,0.93-2.31,1.61-3.63C393.64,69.27,392.83,71.27,391.12,72.82z M401.91,68.32
			c-1.79,1.56-3.4,2.96-5.35,4.65C399.77,73.08,401.64,71.32,401.91,68.32z"/>
		<path d="M68.93,38.73c0.33-1.23-0.11-2.86,1.72-3.29c0.26-0.06,0.57,0.07,0.69,0.09c1.05-0.95,2.14-1.94,3.09-2.8
			c-0.13-0.7-0.53-1.5-0.29-1.99c0.32-0.66,1.11-1.12,1.76-1.57c1.05-0.72,2.15-1.38,3.24-2.04c0.54-0.32,1.11-0.6,1.66-0.89
			c0.07,1.03,0.6,2.41,0.13,3.03c-1.31,1.72-2.96,3.21-4.62,4.62c-1.66,1.41-3.48,2.65-5.28,3.89c-0.62,0.43-1.41,0.62-2.12,0.92
			C68.91,38.7,68.93,38.73,68.93,38.73z"/>
	</g>
</g>
<g>
	<path d="M193.22,250.61h-42.9l-8.24,19.74H125.3l46.32-107.87h0.93l46.47,107.87h-17.56L193.22,250.61z M156.38,236h30.77
		l-15.23-36.99L156.38,236z"/>
	<path d="M250.41,270.35h-16.63V164.66h33.88c24.71,0,38.86,13.52,38.86,33.57c0,14.77-7.3,25.33-20.52,30.15l25.49,41.96h-18.18
		l-23.62-39.01h-2.02h-17.25V270.35z M267.04,217.04c15.7,0,22.23-6.22,22.23-18.81c0-12.75-6.68-18.81-22.23-18.81h-16.63v37.61
		H267.04z"/>
	<path d="M347.24,179.43h-31.4v-14.77h79.42v14.77h-31.4v90.92h-16.63V179.43z"/>
	<path d="M414.85,242.53c4.82,9.17,13.06,14.3,23.94,14.3c11.19,0,18.65-5.29,18.65-13.83c0-9.95-7.62-13.68-16.94-17.87l-7.3-3.26
		c-15.54-6.84-26.27-14.61-26.27-31.09c0-16.16,12.28-27.51,30.31-27.51c14.61,0,24.4,5.44,31.08,16.63l-12.59,8.24
		c-4.04-6.84-9.79-10.26-18.19-10.26c-9.01,0-14.45,4.97-14.45,12.28c0,8.39,5.28,11.35,16.79,16.47l7.3,3.26
		c16.01,7.15,26.73,14.77,26.73,32.64c0,19.43-14.92,29.22-34.97,29.22c-18.03,0-30.93-8.7-38.08-22.23L414.85,242.53z"/>
</g>
<g>
	<path class="st0" d="M123.13,301.44c0-5.99,4.94-10.16,10.5-10.16c5.88,0,10.1,3.88,10.1,9.39c0,3.99-1.83,5.88-4.39,5.88
		c-1.68,0-2.77-0.57-3.37-1.77c-0.8,1.28-1.88,1.71-3.37,1.71c-2.43,0-4.39-2.05-4.39-4.85c0-2.83,1.97-4.91,4.39-4.91
		c1.4,0,2.17,0.51,2.68,1.28v-1.03h2.88v5.79c0,1.11,0.46,1.54,1.23,1.54c0.94,0,1.83-1.11,1.83-3.6c0-4.62-2.97-7.13-7.68-7.13
		c-4.57,0-7.68,3.22-7.68,7.85c0,4.62,3.11,7.85,8.08,7.85c1.4,0,2.82-0.23,3.99-0.83l1.14,2.03c-1.43,0.83-3.17,1.11-5.05,1.11
		C127.76,311.6,123.13,307.44,123.13,301.44z M135.32,301.64c0-1.48-0.71-2.43-2.05-2.43c-1.31,0-2.03,0.94-2.03,2.43
		c0,1.46,0.71,2.37,2.03,2.37C134.6,304.01,135.32,303.1,135.32,301.64z"/>
	<path class="st0" d="M150.84,296.54c0-5.73,4.37-9.96,9.9-9.96c3.6,0,6.08,1.4,7.76,3.77l-2.34,1.66
		c-1.28-1.74-2.94-2.65-5.51-2.65c-3.85,0-6.65,3.08-6.65,7.19c0,4.2,2.85,7.19,6.76,7.19c2.51,0,4.37-0.94,5.82-2.83l2.37,1.63
		c-2,2.65-4.54,3.97-8.3,3.97C155.12,306.5,150.84,302.27,150.84,296.54z"/>
	<path class="st0" d="M182.72,302.61h-7.88l-1.51,3.62h-3.08l8.5-19.8h0.17l8.53,19.8h-3.22L182.72,302.61z M175.95,299.93h5.65
		l-2.8-6.79L175.95,299.93z"/>
	<path class="st0" d="M190.16,286.84h6.91c3.85,0,5.76,2.23,5.76,5.05c0,1.94-1.03,3.51-2.91,4.08c2.34,0.54,3.79,2.05,3.79,4.77
		c0,3.14-2.11,5.51-6.16,5.51h-7.39V286.84z M196.9,294.91c2.03,0,2.94-1.14,2.94-2.74c0-1.63-0.88-2.71-3-2.71h-3.65v5.45H196.9z
		 M197.38,303.61c2.23,0,3.31-1.28,3.31-3.11c0-1.91-1.2-3.14-3.48-3.14h-4.02v6.25H197.38z"/>
	<path class="st0" d="M212.34,296.54c0-5.73,4.37-9.96,9.9-9.96c3.6,0,6.08,1.4,7.76,3.77l-2.34,1.66
		c-1.28-1.74-2.94-2.65-5.51-2.65c-3.85,0-6.65,3.08-6.65,7.19c0,4.2,2.85,7.19,6.76,7.19c2.51,0,4.37-0.94,5.82-2.83l2.37,1.63
		c-2,2.65-4.54,3.97-8.3,3.97C216.62,306.5,212.34,302.27,212.34,296.54z"/>
	<path class="st0" d="M244.21,302.61h-7.88l-1.51,3.62h-3.08l8.5-19.8h0.17l8.53,19.8h-3.22L244.21,302.61z M237.45,299.93h5.65
		l-2.8-6.79L237.45,299.93z"/>
	<path class="st0" d="M251.66,286.84h3.05v16.69h8.56v2.71h-11.61V286.84z"/>
	<path class="st0" d="M266.35,286.84h3.05v16.69h8.56v2.71h-11.61V286.84z"/>
	<path class="st0" d="M279.11,296.54c0-5.73,4.45-9.96,10.02-9.96c5.56,0,10.02,4.22,10.02,9.96c0,5.74-4.45,9.96-10.02,9.96
		C283.56,306.5,279.11,302.27,279.11,296.54z M295.97,296.54c0-4.11-2.82-7.19-6.85-7.19s-6.85,3.08-6.85,7.19
		c0,4.11,2.83,7.19,6.85,7.19S295.97,300.65,295.97,296.54z"/>
	<path class="st0" d="M299.89,286.84h3.22l4.17,12.38l5.48-12.78h0.17l5.51,12.78l4.08-12.38h3.02l-6.79,19.66h-0.17l-5.74-13.53
		l-5.88,13.53h-0.14L299.89,286.84z"/>
	<path class="st0" d="M336.35,302.61h-7.88l-1.51,3.62h-3.08l8.5-19.8h0.17l8.53,19.8h-3.22L336.35,302.61z M329.59,299.93h5.65
		l-2.8-6.79L329.59,299.93z"/>
	<path class="st0" d="M339.12,286.84h3.37l4.96,8.7l4.88-8.7h3.2l-6.59,11.64v7.76h-3.05v-7.73L339.12,286.84z"/>
	<path class="st0" d="M365.63,301.13c0.88,1.68,2.4,2.62,4.39,2.62c2.05,0,3.42-0.97,3.42-2.54c0-1.83-1.4-2.51-3.11-3.28l-1.34-0.6
		c-2.85-1.26-4.82-2.68-4.82-5.71c0-2.97,2.25-5.05,5.56-5.05c2.68,0,4.48,1,5.71,3.05l-2.31,1.51c-0.74-1.26-1.8-1.88-3.34-1.88
		c-1.65,0-2.65,0.91-2.65,2.25c0,1.54,0.97,2.08,3.08,3.03l1.34,0.6c2.94,1.31,4.91,2.71,4.91,5.99c0,3.57-2.74,5.36-6.42,5.36
		c-3.31,0-5.68-1.6-6.99-4.08L365.63,301.13z"/>
	<path class="st0" d="M378.62,296.54c0-5.73,4.37-9.96,9.9-9.96c3.59,0,6.08,1.4,7.76,3.77l-2.34,1.66
		c-1.28-1.74-2.94-2.65-5.51-2.65c-3.85,0-6.65,3.08-6.65,7.19c0,4.2,2.85,7.19,6.76,7.19c2.51,0,4.37-0.94,5.82-2.83l2.37,1.63
		c-2,2.65-4.54,3.97-8.3,3.97C382.9,306.5,378.62,302.27,378.62,296.54z"/>
	<path class="st0" d="M412.17,286.84h3.05v19.4h-3.05v-8.1h-9.3v8.1h-3.05v-19.4h3.05v8.59h9.3V286.84z"/>
	<path class="st0" d="M418.51,296.54c0-5.73,4.45-9.96,10.02-9.96c5.56,0,10.02,4.22,10.02,9.96c0,5.74-4.45,9.96-10.02,9.96
		C422.96,306.5,418.51,302.27,418.51,296.54z M435.37,296.54c0-4.11-2.82-7.19-6.85-7.19s-6.85,3.08-6.85,7.19
		c0,4.11,2.83,7.19,6.85,7.19S435.37,300.65,435.37,296.54z"/>
	<path class="st0" d="M440.88,296.54c0-5.73,4.45-9.96,10.02-9.96c5.56,0,10.02,4.22,10.02,9.96c0,5.74-4.45,9.96-10.02,9.96
		C445.33,306.5,440.88,302.27,440.88,296.54z M457.75,296.54c0-4.11-2.82-7.19-6.85-7.19s-6.85,3.08-6.85,7.19
		c0,4.11,2.83,7.19,6.85,7.19S457.75,300.65,457.75,296.54z"/>
	<path class="st0" d="M464.2,286.84h3.05v16.69h8.56v2.71H464.2V286.84z"/>
</g>
</svg>
